# xmcd
#
# Track frame offsets:
#	150
#	15483
#	30225
#	49978
#	65098
#	81797
#	100859
#	116547
#	143906
#	164713
#	179135
#
# Disc length: 2595 seconds
#
# Revision: 0
# Processed by: cddbd v1.5.1PL0 Copyright (c) Steve Scherf et al.
# Submitted via: dBpowerAMP V4.0
#
DISCID=960a210b
DTITLE=DAE - VOLVER A SER
DYEAR=2005
DGENRE=URBAN POP
TTITLE0=01 SEXY PARA TI
TTITLE1=02 EXTRAÑO CORAZÓN
TTITLE2=03 TODO TERMINÓ
TTITLE3=04 NADA MÁS POR TI
TTITLE4=05 NO CAMBIARÁS
TTITLE5=06 UN MUNDO SIN DOLOR
TTITLE6=07 VOLVER A SER
TTITLE7=08 bonus track TODO TERMINÓ REMIX
TTITLE8=09 
TTITLE9=10 MIRAME
TTITLE10=11 MOMENTOS
EXTD=
EXTT0=
EXTT1=
EXTT2=
EXTT3=
EXTT4=
EXTT5=
EXTT6=
EXTT7=
EXTT8=
EXTT9=
EXTT10=
PLAYORDER=
